<?xml version="1.0" encoding="UTF-8"?>
<svg id="_レイヤー_2" data-name="レイヤー 2" xmlns="http://www.w3.org/2000/svg" viewBox="0 0 500.85 500.85">
  <defs>
    <style>
      .cls-1 {
        fill: #66ad44;
      }

      .cls-2 {
        fill: #80b74b;
      }

      .cls-3 {
        fill: #097139;
      }
    </style>
  </defs>
  <g id="_レイヤー_1-2" data-name="レイヤー 1">
    <g>
      <g>
        <circle class="cls-1" cx="250.43" cy="250.43" r="250.43"/>
        <circle class="cls-3" cx="250.43" cy="250.43" r="205.8"/>
      </g>
      <path class="cls-2" d="M152.15,383s7.81,3.63,11.17,4.52c3.36.88,17.33,4.24,17.33,4.24,0,0,2.48-21.75,5.66-29.35,3.18-7.6,6.54-16.97,9.19-17.68,2.65-.71,59.6-6.61,87.21-27.21,27.61-20.6,55.66-46.45,64.86-77.57,9.2-31.12,14.02-54.34,12.71-86.34-1.31-31.99-10.08-55.22-10.08-55.22,0,0-9.09,9.86-29.71,14.37-20.62,4.51-63.14,10.31-82.47,18.04-19.33,7.73-63.79,25.77-82.47,63.14-18.68,37.37-19.97,74.09-16.11,94.07,3.87,19.97,24.48,45.1,24.48,45.1,0,0,20.62-61.85,47.03-87.62,26.42-25.77,46.39-41.23,59.28-49.61,12.89-8.38,34.79-30.93,34.79-30.93,0,0-8.38,16.11-18.04,26.42-9.66,10.31-50.9,44.46-61.85,58.63-10.95,14.17-38.01,55.41-48.97,79.89-10.95,24.48-24.02,53.1-24.02,53.1Z"/>
    </g>
  </g>
</svg>